<?xml version="1.0" encoding="iso-8859-1"?>
<!-- Generator: Adobe Illustrator 28.7.3, SVG Export Plug-In . SVG Version: 9.03 Build 54978)  -->
<svg version="1.1" id="Tone" xmlns="http://www.w3.org/2000/svg" xmlns:xlink="http://www.w3.org/1999/xlink" x="0px" y="0px"
	 viewBox="0 0 50 50" style="enable-background:new 0 0 50 50;" xml:space="preserve">
<g id="Line">
</g>
<g>
	
		<polygon style="fill:none;stroke:#000000;stroke-width:2;stroke-linecap:round;stroke-linejoin:round;stroke-miterlimit:10;" points="
		19.852,31.014 19.856,31.01 19.856,31.01 	"/>
	<path style="fill:none;stroke:#000000;stroke-width:2;stroke-linecap:round;stroke-linejoin:round;stroke-miterlimit:10;" d="
		M47.697,3.055l-6.24,6.246v-0.02L19.856,31.01l15.08-11.147c0.74-0.546,1.798-0.335,2.149,0.516
		c1.855,4.476,1.024,9.855-2.665,13.551c-3.259,3.262-7.644,4.271-11.858,3.191l-5.308,2.754c7.041,3.935,15.174,2.508,20.383-2.71
		c4.425-4.429,5.794-10.468,4.512-15.914l0.01,0.01c-1.858-8.001,0.455-11.197,5.199-17.735C47.469,3.37,47.583,3.212,47.697,3.055z
		"/>
	<path style="fill:none;stroke:#000000;stroke-width:2;stroke-linecap:round;stroke-linejoin:round;stroke-miterlimit:10;" d="
		M16.742,33.718c-5.276-5.045-4.365-12.854,0.134-17.36c2.67-2.675,6.709-4.074,10.661-3.492l5.692-2.953
		c-0.369-0.18-0.75-0.352-1.151-0.501c-6.123-2.524-13.457-1.269-18.435,3.712C8.856,17.918,7.35,25.289,9.934,31.579
		c1.931,4.7-1.235,8.027-4.426,11.382c-1.131,1.188-2.263,2.38-3.177,3.639l14.404-12.881L16.742,33.718L16.742,33.718z"/>
</g>
</svg>